<svg xmlns="http://www.w3.org/2000/svg" width="48" height="48" viewBox="0 0 24 24" fill="currentColor">
  <path d="M22.46 6c-.77.35-1.6.58-2.46.69.88-.53 1.55-1.37 1.87-2.38-.83.49-1.75.84-2.73 1.03a4.21 4.21 0 0 0-7.17 3.84C7.69 8.88 4.1 7.1 1.67 4.15c-.92 1.58-.46 3.61.99 4.67-.7-.02-1.35-.21-1.93-.52v.05c0 2.22 1.56 4.07 3.64 4.5a4.1 4.1 0 0 1-1.9.07c.54 1.68 2.1 2.9 3.95 2.93A8.46 8.46 0 0 1 0 18.29a11.92 11.92 0 0 0 6.29 1.84c7.55 0 11.68-6.25 11.68-11.68l-.01-.53A8.38 8.38 0 0 0 22.46 6z"/>
</svg>
